<svg xmlns="http://www.w3.org/2000/svg">
    <path d="M33.26 0C14.891 0 0 14.891 0 33.26s14.891 33.26 33.26 33.26 33.261-14.891 33.261-33.26S51.629 0 33.26 0zm14.945 39.053c-8.302 6.522-21.846 2.151-21.846 2.151s6.289-.993 18.701-9.434 9.103-21.46 9.103-21.46c4.852 7.289 3.31 21.461-5.958 28.743zm3.751-30.507s1.986 5.186-1.544 12.909-10.233 9.93-10.233 9.93c-8.027 3.531-16.357 2.468-16.357 2.468 8.496-1.283 20.301-11.185 21.294-20.231S42.469 3.581 42.469 3.581c5.848.661 9.487 4.965 9.487 4.965zM7.768 17.519C9.726 10.31 20.705 2.882 24.87 4.421c2.422.895 3.922 5.673-2.048 12.323-6.377 7.105-16.801 7.208-15.054.775zm-2.151 2.39s.945 4.497 5.848 4.497c7.062 0 14.895-4.166 17.543-14.096 1.367-5.128-2.011-7.282-2.011-7.282C33.261.821 40.18 2.894 40.18 2.894c5.709 5.185 1.718 15.709-1.241 19.319-4.987 6.082-13.461 10.274-20.302 11.639S6.5 28.736 5.618 26.088s-.001-6.179-.001-6.179zM2.776 36.653c-.579-5.709.745-12.247.745-12.247S2.63 34.418 17.175 35.962c11.312 1.201 22.177-2.123 22.177-2.123-3.641 2.814-14.978 6.703-14.978 6.703s-5.702-1.092-10.261-.662c-5.158.486-9.709 3.42-9.709 3.42s-1.166-2.083-1.628-6.647zm6.951 16.384s3.476-1.489 7.447-1.903 8.119 2.303 12.744 3.89c3.342 1.146 10.261 2.233 10.261 2.233-14.233 3.394-20.386 2.98-25.901-.413-3.228-1.986-4.551-3.807-4.551-3.807zm29.322 9.461c-10.042 2.316-19.088-1.544-19.088-1.544s9.984 2.014 22.784-3.25c0 0 6.895 0 11.419-3.15-.001 0-5.074 5.627-15.115 7.944zm15.74-10.147c-14.307 8.713-28.062-2.509-35.133-2.966s-10.95 2.053-10.95 2.053-.659-.606-1.904-2.703c-1.319-2.223-1.89-3.684-1.89-3.684 16.054-9.125 30.715 6.04 43.717-3.717 14.127-10.6 9.125-26.168 9.125-26.168 7.983 13.916 6.714 31.29-2.965 37.185z" fill="#00417f"/>
</svg>
